custom-analysis
version=1
nRows=16
nColumns=42
inDegrees=no

This file contains tibia displacement and acting force.

Units are S.I. units (seconds, meters, Newtons, ...)
Angles are in degrees.

endheader
time	APT	SIT	knee_angle	aACL_R_force	pACL_R_force	aPCL_R_force	pPCL_R_force	aMCL_R_force	mMCL_R_force	pMCL_R_force	aLCL_R_force	mLCL_R_force	pLCL_R_force	aACL_R_length	pACL_R_length	aPCL_R_length	pPCL_R_length	aMCL_R_length	mMCL_R_length	pMCL_R_length	aLCL_R_length	mLCL_R_length	pLCL_R_length	aACL_R_strain	pACL_R_strain	aPCL_R_strain	pPCL_R_strain	aMCL_R_strain	mMCL_R_strain	pMCL_R_strain	aLCL_R_strain	mLCL_R_strain	pLCL_R_strain	femur_lat_meniscii_force_r	femur_lat_meniscii_torque_r	femur_med_meniscii_force_r	femur_med_meniscii_torque_r	femur_lat_tibia_force_r	femur_lat_tibia_torque_r	femur_med_tibia_force_r	femur_med_tibia_torque_r
      0.07053086	      0.00624160	      0.00695841	     26.38103645	    -17.78087466	      0.00000000	     87.86559103	    152.38709400	      0.00000000	      0.00000000	      0.00000000	      0.00000000	      0.00000000	      0.00000000	      0.03130608	      0.02448704	      0.03190466	      0.03094843	      0.05713818	      0.05952463	      0.05894820	      0.05416697	      0.05109565	      0.04765169	      0.00969438	     -0.03437323	      0.02602851	      0.02860395	     -0.01531735	     -0.00449671	     -0.02930773	     -0.03233870	     -0.09273941	     -0.08962114	     88.90515089	      8.71162990	     88.96586620	     14.16001800	    195.09996333	      6.66962799	   1023.98505949	     23.56066067
      0.07123457	      0.00630571	      0.00708831	     26.81727829	    -17.77151034	      0.00000000	     97.16037981	    158.83246181	      0.00000000	      0.00000000	      0.00000000	      0.00000000	      0.00000000	      0.00000000	      0.03127188	      0.02444517	      0.03198416	      0.03099881	      0.05717339	      0.05951452	      0.05889132	      0.05415790	      0.05105667	      0.04758621	      0.00859154	     -0.03602443	      0.02858493	      0.03027853	     -0.01471052	     -0.00466572	     -0.03024445	     -0.03250074	     -0.09343145	     -0.09087201	     88.20566310	      7.97696782	     87.36715144	     14.09343613	    191.19232095	      6.53807516	   1026.28069443	     23.61825850
      0.07193827	      0.00637160	      0.00721966	     27.25616311	    -17.06300060	      0.00000000	    107.25231570	    165.16107605	      0.00000000	      0.00000000	      0.00000000	      0.00000000	      0.00000000	      0.00000000	      0.03123817	      0.02440401	      0.03206311	      0.03104845	      0.05720886	      0.05950443	      0.05883451	      0.05414857	      0.05101733	      0.04752040	      0.00750412	     -0.03764740	      0.03112392	      0.03192819	     -0.01409930	     -0.00483448	     -0.03117981	     -0.03266746	     -0.09412991	     -0.09212940	     85.44808297	      8.12348200	     84.61428121	     11.76254228	    185.59297259	      6.33669606	   1013.87931167	     23.37216483
      0.07264197	      0.00643927	      0.00735236	     27.69768031	    -16.98169103	      0.00000000	    118.03612596	    171.10958768	      0.00000000	      0.00000000	      0.00000000	      0.00000000	      0.00000000	      0.00000000	      0.03120523	      0.02436389	      0.03214145	      0.03109731	      0.05724459	      0.05949439	      0.05877784	      0.05413896	      0.05097764	      0.04745425	      0.00644187	     -0.03922971	      0.03364330	      0.03355205	     -0.01348350	     -0.00500232	     -0.03211302	     -0.03283917	     -0.09483474	     -0.09339315	     88.50214866	      8.67545571	     81.91909165	     12.34978302	    180.01203991	      6.17410296	   1016.53846414	     23.49327829
      0.07334568	      0.00650854	      0.00748686	     28.14175826	    -17.42300431	      0.00000000	    129.63687058	    177.13457288	      0.00000000	      0.00000000	      0.00000000	      0.00000000	      0.00000000	      0.00000000	      0.03117269	      0.02432442	      0.03221885	      0.03114507	      0.05728012	      0.05948396	      0.05872086	      0.05412861	      0.05093714	      0.04738734	      0.00539214	     -0.04078590	      0.03613253	      0.03513942	     -0.01287120	     -0.00517679	     -0.03305137	     -0.03302394	     -0.09555382	     -0.09467150	     89.85053737	      7.77550028	     82.05138999	     12.42932164	    174.32013738	      5.97287415	   1027.30723486	     23.77956700
      0.07404938	      0.00657927	      0.00762332	     28.58832700	    -16.48650959	      0.00000000	    141.56267427	    182.10724108	      0.00000000	      0.00000000	      0.00000000	      0.00000000	      0.00000000	      0.00000000	      0.03114007	      0.02428512	      0.03229537	      0.03119179	      0.05731535	      0.05947305	      0.05866350	      0.05411749	      0.05089581	      0.04731965	      0.00434023	     -0.04233577	      0.03859317	      0.03669231	     -0.01226405	     -0.00535931	     -0.03399579	     -0.03322268	     -0.09628779	     -0.09596463	     92.12733307	      7.28235595	     78.56769975	     11.24615832	    166.54034246	      5.72523862	   1017.95653043	     23.62589188
      0.07475309	      0.00665301	      0.00776144	     29.03764213	    -16.50113241	      0.00000000	    153.95241743	    186.76130776	      0.00000000	      0.00000000	      0.00000000	      0.00000000	      0.00000000	      0.00000000	      0.03110857	      0.02424700	      0.03237041	      0.03123693	      0.05735059	      0.05946193	      0.05860608	      0.05410567	      0.05085376	      0.04725129	      0.00332418	     -0.04383898	      0.04100638	      0.03819267	     -0.01165676	     -0.00554528	     -0.03494140	     -0.03343386	     -0.09703437	     -0.09727059	     97.03584371	      8.60550375	     78.10515359	     10.88418124	    162.27548119	      5.56488017	   1025.15040194	     23.80280185
      0.07545679	      0.00672882	      0.00790148	     29.48949808	    -16.67402943	      0.00000000	    166.51392808	    191.85614064	      0.00000000	      0.00000000	      0.00000000	      0.00000000	      0.00000000	      0.00000000	      0.03107739	      0.02420935	      0.03244422	      0.03128075	      0.05738556	      0.05945036	      0.05854835	      0.05409301	      0.05081086	      0.04718216	      0.00231876	     -0.04532381	      0.04338026	      0.03964881	     -0.01105409	     -0.00573869	     -0.03589198	     -0.03365992	     -0.09779606	     -0.09859144	     96.62986514	      7.47643801	     75.89370092	     11.81862066	    160.03915589	      5.48609731	   1033.18217742	     23.99649046
      0.07616050	      0.00680611	      0.00804325	     29.94376862	    -15.83530920	      0.00000000	    178.89629300	    196.79782099	      0.00000000	      0.00000000	      0.00000000	      0.00000000	      0.00000000	      0.00000000	      0.03104650	      0.02417219	      0.03251718	      0.03132359	      0.05742039	      0.05943850	      0.05849046	      0.05407973	      0.05076731	      0.04711246	      0.00132224	     -0.04678923	      0.04572646	      0.04107264	     -0.01045390	     -0.00593707	     -0.03684520	     -0.03389720	     -0.09856930	     -0.09992303	     98.18799520	      9.04222776	     74.44297368	     10.24260868	    156.62776207	      5.37036852	   1025.75338529	     23.86642149
      0.07686420	      0.00688549	      0.00818652	     30.40054141	    -15.17130810	      0.00000000	    190.76265904	    200.84645070	      0.00000000	      0.00000000	      0.00000000	      0.00000000	      0.00000000	      0.00000000	      0.03101692	      0.02413656	      0.03258880	      0.03136504	      0.05745510	      0.05942639	      0.05843246	      0.05406570	      0.05072302	      0.04704208	      0.00036817	     -0.04819420	      0.04802975	      0.04245033	     -0.00985568	     -0.00613959	     -0.03780028	     -0.03414785	     -0.09935577	     -0.10126765	    100.20637031	      8.10406907	     70.07913214	     10.26469066	    155.27948251	      5.32778783	   1031.16772662	     24.03675618
      0.07756790	      0.00696619	      0.00833173	     30.85963973	      0.00000000	      0.00000000	    203.46308155	    207.30761753	      0.00000000	      0.00000000	      0.00000000	      0.00000000	      0.00000000	      0.00000000	      0.03098731	      0.02410108	      0.03265948	      0.03140549	      0.05748949	      0.05941385	      0.05837421	      0.05405086	      0.05067794	      0.04697103	     -0.00058660	     -0.04959341	      0.05030270	      0.04379493	     -0.00926306	     -0.00634937	     -0.03875961	     -0.03441285	     -0.10015625	     -0.10262510	     95.67380115	      6.76345518	     75.42656100	     10.46391577	    155.97183857	      5.36684032	   1045.60887867	     24.40909713
      0.07818640	      0.00703703	      0.00846063	     31.26484688	      0.00000000	      0.00000000	    214.36533354	    212.19686531	      0.00000000	      0.00000000	      0.00000000	      0.00000000	      0.00000000	      0.00000000	      0.03096033	      0.02406909	      0.03272199	      0.03144138	      0.05751995	      0.05940299	      0.05832333	      0.05403788	      0.05063837	      0.04690879	     -0.00145684	     -0.05085486	      0.05231316	      0.04498769	     -0.00873822	     -0.00653104	     -0.03959732	     -0.03464480	     -0.10085878	     -0.10381406	     99.65835117	      8.33811602	     74.19922771	     10.85810261	    154.63897681	      5.32536170	   1053.61561387	     24.64078716
      0.07880489	      0.00710844	      0.00859083	     31.67172599	      0.00000000	      0.00000000	    225.25181677	    217.15230709	      0.00000000	      0.00000000	      0.00000000	      0.00000000	      0.00000000	      0.00000000	      0.03093311	      0.02403701	      0.03278419	      0.03147691	      0.05755036	      0.05939201	      0.05827250	      0.05402456	      0.05059849	      0.04684636	     -0.00233481	     -0.05211982	      0.05431329	      0.04616845	     -0.00821419	     -0.00671460	     -0.04043438	     -0.03488279	     -0.10156698	     -0.10500678	    100.00237966	      9.38385456	     77.42681661	      9.91700517	    154.88555956	      5.33048211	   1060.11164338	     24.85251117
      0.07942338	      0.00717994	      0.00872213	     32.08017450	      0.00000000	      0.00000000	    236.10948616	    222.08102786	      0.00000000	      0.00000000	      0.00000000	      0.00000000	      0.00000000	      0.00000000	      0.03090573	      0.02400500	      0.03284634	      0.03151237	      0.05758084	      0.05938107	      0.05822186	      0.05401107	      0.05055845	      0.04678391	     -0.00321795	     -0.05338224	      0.05631209	      0.04734697	     -0.00768890	     -0.00689751	     -0.04126830	     -0.03512384	     -0.10227788	     -0.10619984	    103.72858168	     10.50796110	     76.44879903	      9.87822841	    152.85254999	      5.27073917	   1061.80393302	     24.87942726
      0.08004188	      0.00725197	      0.00885465	     32.49022807	      0.00000000	      0.00000000	    246.53288425	    226.06685223	      0.00000000	      0.00000000	      0.00000000	      0.00000000	      0.00000000	      0.00000000	      0.03087863	      0.02397350	      0.03290793	      0.03154725	      0.05761115	      0.05936994	      0.05817117	      0.05399707	      0.05051794	      0.04672111	     -0.00409195	     -0.05462442	      0.05829258	      0.04850633	     -0.00716641	     -0.00708367	     -0.04210299	     -0.03537387	     -0.10299717	     -0.10739967	    102.78999301	      9.01234909	     72.74365294	     10.00306705	    152.01506477	      5.25051010	   1063.86720499	     24.90496772
      0.08066037	      0.00732495	      0.00898833	     32.90193909	      0.00000000	      0.00000000	    256.86745755	    230.06412992	      0.00000000	      0.00000000	      0.00000000	      0.00000000	      0.00000000	      0.00000000	      0.03085207	      0.02394272	      0.03296874	      0.03158136	      0.05764136	      0.05935865	      0.05812047	      0.05398256	      0.05047697	      0.04665795	     -0.00494840	     -0.05583808	      0.06024846	      0.04964012	     -0.00664594	     -0.00727254	     -0.04293779	     -0.03563301	     -0.10372479	     -0.10860633	    106.00930252	      9.43773126	     72.24790040	     10.06954074	    151.44328903	      5.23531774	   1065.05057869	     24.96069604
